<svg xmlns="http://www.w3.org/2000/svg" viewBox="0 0 100 100"><path stroke="#fff" d="M35.5 43.7c3.4 6.5 4 8.5 3 8.8-2.3.5-1.8 3.5 1.2 9 3.9 6.8 11.3 11 18.4 10.2 2.7-.2 5.8-.8 6.8-1.3 1-.4.4.4-1.4 1.8-9.1 7.3-20.4 6.8-29.4-1.3a33.9 33.9 0 0 1-8.5-16.2c0-1-.8-2-1.8-2.2-1.6-.3-1.4-1.1 2.2-8.1 2.2-4.3 4.2-8 4.6-8.4.3-.4 2.5 3 5 7.7zm29 12.6c-3.4-6.5-4-8.5-3-8.8 2.3-.5 1.8-3.5-1.2-9a19.5 19.5 0 0 0-18.4-10.2c-2.7.2-5.8.8-6.8 1.3-1 .4-.4-.4 1.4-1.8 9.1-7.3 20.4-6.8 29.4 1.3a33.9 33.9 0 0 1 8.5 16.2c0 1 .8 2 1.8 2.2 1.6.3 1.4 1.1-2.2 8.1-2.2 4.3-4.2 8-4.6 8.4-.3.4-2.5-3-5-7.7z" fill="#fff"/></svg>