<svg xmlns="http://www.w3.org/2000/svg" viewBox="0 0 100 100" preserveAspectRatio="xMidYMid meet">
 <g>
  <path stroke="#f3ed4e" id="clockFace" d="m50.00005,7.09218c-23.99119,0 -43.43977,19.20956 -43.43977,42.90794c0,23.69709 19.44858,42.90771 43.43977,42.90771c23.99145,0 43.43967,-19.21062 43.43967,-42.90771c0,-23.69838 -19.44822,-42.90794 -43.43967,-42.90794zm0,76.95602c-19.01209,0 -34.47368,-15.27559 -34.47368,-34.04808c0,-18.77705 15.46159,-34.05163 34.47368,-34.05163c19.01232,0 34.46997,15.27225 34.46997,34.05163c0,18.77945 -15.46358,34.04808 -34.46997,34.04808zm-0.0032,-66.15369c-1.65238,0 -2.9851,1.32243 -2.9851,2.9518l0,27.2221l-18.0715,7.80568c-1.51173,0.65544 -2.19913,2.39793 -1.53556,3.89109c0.4902,1.10683 1.58368,1.76927 2.73513,1.76927c0.4,0 0.80937,-0.0799 1.19815,-0.25109l19.80321,-8.55579c0.01497,-0.00555 0.02769,-0.0125 0.03891,-0.01802l0.0125,-0.00552c0.04451,-0.01801 0.06823,-0.05863 0.11087,-0.07433c0.31121,-0.15323 0.60038,-0.33323 0.83308,-0.57557c0.10152,-0.10016 0.15849,-0.22985 0.23609,-0.34435c0.14393,-0.18921 0.30223,-0.37527 0.38876,-0.60279c0.07196,-0.1777 0.07756,-0.36925 0.11401,-0.5585c0.03873,-0.19157 0.11309,-0.3591 0.11309,-0.5516l0,-29.1538c0,-1.62615 -1.33888,-2.94858 -2.99163,-2.94858z" opacity="0.2" fill="#f3ed4e"/>
 </g>
</svg>