<svg xmlns="http://www.w3.org/2000/svg" viewBox="0 0 100 100" preserveAspectRatio="xMidYMid meet">
 <g>
  <path stroke="#fff" id="restart" d="m35.5056,43.716076c3.372307,6.518814 4.030869,8.498901 2.915508,8.767384c-2.177818,0.525223 -1.74025,3.529305 1.308697,8.977859c3.823166,6.833786 11.312054,11.030197 18.346466,10.280807c2.730099,-0.290703 5.816929,-0.891006 6.859375,-1.334038c1.042343,-0.442657 0.402931,0.382172 -1.421535,1.833298c-9.125237,7.258881 -20.395531,6.753609 -29.386948,-1.318504c-3.584892,-3.218361 -8.517288,-12.621479 -8.517288,-16.237457c0,-1.024529 -0.813511,-2.016975 -1.807161,-2.205673c-1.625563,-0.30867 -1.407495,-1.121761 2.170891,-8.085125c2.188185,-4.257904 4.247587,-8.047215 4.577074,-8.420513c0.329559,-0.373257 2.558933,3.110291 4.954922,7.741962l0,0zm28.988617,12.567978c-3.372375,-6.519196 -4.03046,-8.498791 -2.915546,-8.767773c2.178345,-0.525269 1.740227,-3.528889 -1.30822,-8.977905c-3.823597,-6.833536 -11.312435,-11.030153 -18.346813,-10.280779c-2.730244,0.291119 -5.817093,0.891417 -6.859459,1.334091c-1.042274,0.442589 -0.402481,-0.38225 1.421555,-1.833385c9.125675,-7.25873 20.395977,-6.752876 29.386917,1.318466c3.585327,3.218359 8.517708,12.621447 8.517708,16.237638c0,1.024479 0.813072,2.016972 1.807205,2.205666c1.625275,0.309101 1.407013,1.121712 -2.171318,8.084949c-2.188164,4.258427 -4.247665,8.047279 -4.577095,8.420567c-0.329109,0.373802 -2.558899,-3.110344 -4.954933,-7.741535l0,0z" fill="#fff"/>
 </g>
</svg>